<?xml version="1.0" encoding="utf-8"?>
<svg viewBox="0 0 504.131 504.131" style="enable-background:new 0 0 504.131 504.131;" fill="none" xmlns="http://www.w3.org/2000/svg">
  <path style="fill-rule: evenodd; paint-order: fill; fill: rgb(0, 255, 204); opacity: 0.9;" d="M 223.827 427.427 C 223.827 427.427 67.281 465.147 78.778 335.809 C 90.265 206.451 268.36 141.786 213.782 39.381 C 213.782 39.381 299.945 104.056 216.646 246.877 C 133.347 389.698 278.405 400.484 276.963 341.192 C 276.963 341.192 297.072 416.642 223.827 427.427 Z"/>
  <path style="paint-order: fill; fill: rgba(0, 255, 204, 0.46); opacity: 0.9;" d="M 264.734 296.209 C 259.947 300.925 252.627 303.02 245.557 300.944 C 238.507 298.877 233.74 293.24 232.698 286.814 C 230.795 288.702 229.263 290.957 228.362 293.606 C 225.288 302.87 230.785 312.734 240.66 315.646 C 250.534 318.53 261.058 313.373 264.163 304.1 C 265.035 301.452 265.145 298.774 264.734 296.209 Z"/>
  <path style="paint-order: stroke; fill: rgb(255, 255, 255); opacity: 0.9;" d="M 186.522 315.788 C 186.522 315.788 186.532 402.023 128.348 408.084 C 62.454 414.942 91.726 294.228 166.413 197.215 C 166.413 197.215 124.513 281.431 140.556 314.444 C 149.382 332.593 159.552 334.71 168.079 331.534 C 178.536 327.64 186.522 315.788 186.522 315.788 Z"/>
  <path style="fill: rgb(255, 255, 255); opacity: 0.9;" d="M 273.457 442.017 C 273.457 442.017 328.045 433.938 312.722 336.025 C 297.4 238.121 261.989 218.363 281.127 170.75 C 281.127 170.75 265.804 191.399 349.105 269.556 C 432.394 347.693 437.681 466.276 297.891 465.392 C 297.891 465.392 264.203 465.195 261.018 451.008 C 259.096 442.468 273.457 442.017 273.457 442.017 Z"/>
</svg>